# Blender 4.0.2
# www.blender.org
mtllib Keybaord_key.mtl
o Cube
v -0.591031 0.105725 0.589755
v -0.687503 0.009253 0.686227
v -0.591031 0.105725 -0.589755
v -0.687503 0.009253 -0.686227
v 0.591031 0.105725 0.589755
v 0.687503 0.009253 0.686227
v 0.591031 0.105725 -0.589755
v 0.687503 0.009253 -0.686227
vn -0.0000 1.0000 -0.0000
vn -0.7071 0.7071 -0.0000
vn -0.0000 0.7071 -0.7071
vn 0.7071 0.7071 -0.0000
vn -0.0000 0.7071 0.7071
vt 0.642540 0.517573
vt 0.857460 0.517573
vt 0.857460 0.732427
vt 0.642540 0.732427
vt 0.875000 0.500000
vt 0.875000 0.750000
vt 0.625000 0.500000
vt 0.597945 0.750000
vt 0.597945 0.500000
vt 0.625000 0.750000
s 0
f 7/1/1 3/2/1 1/3/1 5/4/1
f 1/3/2 3/2/2 4/5/2 2/6/2
f 3/2/3 7/1/3 8/7/3 4/5/3
f 7/1/4 5/4/4 6/8/4 8/9/4
f 5/4/5 1/3/5 2/6/5 6/10/5
